# xmcd CD database file
#
# Track frame offsets:
#	150
#	18635
#	38145
#	51322
#	67455
#	94107
#	116632
#	135255
#	151422
#	170770
#
# Disc length: 2588 seconds
#
# Revision: 0
# Processed by: cddbd v1.5.1PL0 Copyright (c) Steve Scherf et al.
# Submitted via: CDex 1.51
#
DISCID=8d0a1a0a
DTITLE=Humming Bird - PICK UP
DYEAR=1995
DGENRE=JPop
TTITLE0=ロング・ロング・タイム
TTITLE1=判断基準
TTITLE2=君は来ない
TTITLE3=ハッピー・バースディ
TTITLE4=今を生きる人へ
TTITLE5=星の手紙(new version)
TTITLE6=海を越えて
TTITLE7=はるかなる海へ(new version)
TTITLE8=Make A Map
TTITLE9=祝福と涙(new version)
EXTD=YEAR: 1995
EXTT0=
EXTT1=
EXTT2=
EXTT3=
EXTT4=
EXTT5=
EXTT6=
EXTT7=
EXTT8=
EXTT9=
PLAYORDER=
